<svg xmlns="http://www.w3.org/2000/svg" x="8     " width="389" height="73" viewBox="0 0 177 73" fill="none" style="&#10;    margin-left: -93px;&#10;">
    <text font-size="40" font-weight="bold" font-family="Avenir, Helvetica, sans-serif" fill="#4E35A3" y="50" x="54">EDUCATOR
    </text>
    <path fill-rule="evenodd" clip-rule="evenodd" d="M29.8198 68.6289L27.5635 72.7419L25.3123 68.639C26.0441 68.7198 26.7759 68.7754 27.5025 68.7754C28.2648 68.7754 29.0474 68.7198 29.8198 68.6289ZM36.1314 57.1436L30.8768 66.7087C30.6888 66.7441 30.4906 66.7744 30.3026 66.7997C29.3676 66.9361 28.4173 67.022 27.4975 67.022C26.5777 67.022 25.6223 66.9361 24.6872 66.7997C24.545 66.7795 24.4027 66.7492 24.2553 66.729L19.0058 57.1688C19.2955 57.2042 19.5902 57.2244 19.9205 57.2244C22.1769 57.2244 23.3761 56.2947 24.5653 55.3599C25.3733 54.7384 26.1813 54.1067 27.4873 54.1067C28.7933 54.1067 29.5962 54.7384 30.4093 55.3599C31.5985 56.2947 32.7978 57.2244 35.0541 57.2244C35.4454 57.2244 35.796 57.1991 36.1314 57.1436Z" fill="#4E35A3"/>
    <path fill-rule="evenodd" clip-rule="evenodd" d="M27.5025 22.4603H27.4873C21.3688 22.4653 15.8094 24.9564 11.7795 28.9634C7.76495 32.9602 5.2698 38.473 5.25964 44.5466V44.582V44.5971C5.26472 50.6758 7.77003 56.2088 11.7999 60.2157C14.3153 62.7119 17.4305 64.6168 20.9064 65.6982L17.7455 59.7963C16.6326 59.0889 15.601 58.2704 14.6711 57.3457C11.3832 54.0815 9.3403 49.5642 9.33522 44.5971V44.582V44.5466C9.3403 39.5846 11.3882 35.0774 14.666 31.8132C17.9488 28.544 22.4868 26.5127 27.4873 26.5127H27.5025H27.5381C32.5182 26.5178 37.0461 28.549 40.3289 31.8132H40.3391C43.627 35.0774 45.6648 39.5947 45.6699 44.5668V44.582V44.6173C45.6597 49.5743 43.627 54.0764 40.3391 57.3457C39.4904 58.1895 38.5554 58.9424 37.5543 59.6094L34.3426 65.6173C37.722 64.5259 40.766 62.6462 43.2255 60.2006C47.2452 56.2037 49.7404 50.6859 49.7454 44.6224V44.587V44.5719C49.7404 38.4881 47.2401 32.9602 43.2103 28.9533L43.2154 28.9482C39.1957 24.9514 33.6413 22.4754 27.5381 22.4653" fill="#4E35A3"/>
    <path fill-rule="evenodd" clip-rule="evenodd" d="M37.9608 23.0919C30.9836 19.4992 24.0215 19.7115 17.0341 23.0919C17.0341 19.7266 17.0341 16.5332 17.0341 13.1578C22.0701 7.22063 33.3466 7.49854 37.9608 13.1578C37.9608 15.9622 37.9608 20.2824 37.9608 23.0919ZM44.3384 15.8409V14.3604V7.10947V6.01298C44.3384 5.67444 44.0844 5.38642 43.7439 5.346L38.6418 4.70428L27.5025 0L0 11.6116L15.2097 15.5327V12.9001L15.4181 12.3342C15.9212 11.738 16.5005 11.1821 17.1205 10.6819C20.012 8.35754 23.8945 7.2459 27.716 7.28127C31.5425 7.32169 35.3437 8.51924 38.0574 10.7931C38.6164 11.263 39.1347 11.7885 39.6022 12.3544L39.8004 12.9001V15.5327L42.9918 14.7091V15.8409C42.6818 16.0582 42.4734 16.4119 42.4734 16.8212C42.4734 17.2608 42.7174 17.6398 43.068 17.8469C42.8851 17.9379 42.7072 18.0642 42.5497 18.236L42.138 22.1015C42.5497 22.435 43.0832 22.6371 43.6626 22.6371C44.2419 22.6371 44.7704 22.435 45.1973 22.1015L44.7856 18.236C44.6281 18.0642 44.4502 17.9328 44.2673 17.8469C44.623 17.6398 44.8568 17.2608 44.8568 16.8212C44.8619 16.4119 44.6535 16.0532 44.3384 15.8409ZM55 11.6116L45.6953 7.68045V14.0067L55 11.6116Z" fill="#4E35A3"/>
    <path fill-rule="evenodd" clip-rule="evenodd" d="M18.2994 51.8784V24.5977H24.4433V50.8729C24.0317 51.1104 23.6556 51.3782 23.2796 51.651C22.5478 52.1766 21.816 52.7071 20.632 52.7071C19.6156 52.7071 18.9397 52.318 18.2994 51.8784ZM30.5516 52.2321V25.9569H36.6954V53.2377C36.0602 53.6773 35.3793 54.0714 34.3578 54.0714C33.1789 54.0714 32.4471 53.5408 31.7153 53.0103C31.3393 52.7425 30.9683 52.4696 30.5516 52.2321Z" fill="#4E35A3"/>
</svg>